<svg width="120" height="120" viewBox="0 0 120 120" fill="none" xmlns="http://www.w3.org/2000/svg">
  <defs>
    <linearGradient id="goc-gradient" x1="0" y1="0" x2="120" y2="120" gradientUnits="userSpaceOnUse">
      <stop offset="0%" stop-color="#7C5CFF"/>
      <stop offset="100%" stop-color="#22D3EE"/>
    </linearGradient>
  </defs>
  <rect width="120" height="120" rx="28" fill="#0B1020"/>
  <rect x="10" y="10" width="100" height="100" rx="24" fill="url(#goc-gradient)"/>
  <path d="M60 32C44.536 32 32 44.536 32 60C32 75.464 44.536 88 60 88C67.333 88 74.002 85.222 79.005 80.669C79.78 79.969 80.042 78.857 79.658 77.882C79.273 76.907 78.311 76.27 77.266 76.27H63.5C61.567 76.27 60 74.703 60 72.77V66.5C60 64.567 61.567 63 63.5 63H78.5C80.433 63 82 61.433 82 59.5C82 44.536 75.464 32 60 32Z" fill="#0B1020"/>
  <path d="M64.5 68H82V74H64.5C63.119 74 62 72.881 62 71.5V70.5C62 69.119 63.119 68 64.5 68Z" fill="#0B1020"/>
</svg>
